<?xml version="1.0" encoding="UTF-8" standalone="no"?><!DOCTYPE svg PUBLIC "-//W3C//DTD SVG 1.1//EN" "http://www.w3.org/Graphics/SVG/1.1/DTD/svg11.dtd"><!-- Generated by graphviz version 2.40.1 (20161225.0304)
 --><!-- Title: G Pages: 1 --><svg xmlns="http://www.w3.org/2000/svg" xmlns:xlink="http://www.w3.org/1999/xlink" width="687pt" height="332pt" viewBox="0.00 0.00 687.19 332.00">
<g id="graph0" class="graph" transform="scale(1 1) rotate(0) translate(4 328)">
<title>G</title>
<polygon fill="#ffffff" stroke="transparent" points="-4,4 -4,-328 683.1852,-328 683.1852,4 -4,4"/>
<!-- Mt -->
<g id="node1" class="node">
<title>Mt</title>
<polygon fill="#ff3030" stroke="#000000" points="120.8966,-324 12.8966,-324 12.8966,-288 120.8966,-288 120.8966,-324"/>
<text text-anchor="middle" x="66.8966" y="-301.8" font-family="Times,serif" font-size="14.00" fill="#000000">Matrix</text>
</g>
<!-- 0&#45;1 -->
<g id="node2" class="node">
<title>0-1</title>
<polygon fill="#ffc300" stroke="#000000" points="261.9745,-324 141.8187,-324 141.8187,-288 261.9745,-288 261.9745,-324"/>
<text text-anchor="middle" x="201.8966" y="-301.8" font-family="Times,serif" font-size="14.00" fill="#000000">[(0,-1) INFO: Col]</text>
</g>
<!-- Mt&#45;&gt;0&#45;1 -->
<g id="edge13" class="edge">
<title>Mt-&gt;0-1</title>
<path fill="none" stroke="#000000" d="M120.9493,-306C124.5362,-306 128.1231,-306 131.71,-306"/>
<polygon fill="#000000" stroke="#000000" points="131.8186,-309.5001 141.8186,-306 131.8185,-302.5001 131.8186,-309.5001"/>
</g>
<!-- &#45;14 -->
<g id="node6" class="node">
<title>-14</title>
<polygon fill="#daf7a6" stroke="#000000" points="130.19,-252 3.6032,-252 3.6032,-216 130.19,-216 130.19,-252"/>
<text text-anchor="middle" x="66.8966" y="-229.8" font-family="Times,serif" font-size="14.00" fill="#000000">[(-1,4) INFO: Row]</text>
</g>
<!-- Mt&#45;&gt;&#45;14 -->
<g id="edge14" class="edge">
<title>Mt-&gt;-14</title>
<path fill="none" stroke="#000000" d="M66.8966,-287.8314C66.8966,-280.131 66.8966,-270.9743 66.8966,-262.4166"/>
<polygon fill="#000000" stroke="#000000" points="70.3967,-262.4132 66.8966,-252.4133 63.3967,-262.4133 70.3967,-262.4132"/>
</g>
<!-- 5&#45;1 -->
<g id="node3" class="node">
<title>5-1</title>
<polygon fill="#ffc300" stroke="#000000" points="400.9745,-324 280.8187,-324 280.8187,-288 400.9745,-288 400.9745,-324"/>
<text text-anchor="middle" x="340.8966" y="-301.8" font-family="Times,serif" font-size="14.00" fill="#000000">[(5,-1) INFO: Col]</text>
</g>
<!-- 0&#45;1&#45;&gt;5&#45;1 -->
<g id="edge1" class="edge">
<title>0-1-&gt;5-1</title>
<path fill="none" stroke="#000000" d="M262.1661,-292.7381C264.9532,-292.5943 267.7403,-292.5157 270.5274,-292.5021"/>
<polygon fill="#000000" stroke="#000000" points="270.5396,-296.0033 280.6186,-292.7377 270.703,-289.0052 270.5396,-296.0033"/>
</g>
<!-- 04 -->
<g id="node10" class="node">
<title>04</title>
<polygon fill="#aed6f1" stroke="#000000" points="255.8966,-252 147.8966,-252 147.8966,-216 255.8966,-216 255.8966,-252"/>
<text text-anchor="middle" x="201.8966" y="-229.8" font-family="Times,serif" font-size="14.00" fill="#000000">[(0,4) INFO: b]</text>
</g>
<!-- 0&#45;1&#45;&gt;04 -->
<g id="edge16" class="edge">
<title>0-1-&gt;04</title>
<path fill="none" stroke="#000000" d="M195.9442,-287.8314C195.1938,-280.131 194.9729,-270.9743 195.2815,-262.4166"/>
<polygon fill="#000000" stroke="#000000" points="198.7758,-262.6161 195.9206,-252.4133 191.7901,-262.1697 198.7758,-262.6161"/>
</g>
<!-- 5&#45;1&#45;&gt;0&#45;1 -->
<g id="edge2" class="edge">
<title>5-1-&gt;0-1</title>
<path fill="none" stroke="#000000" d="M280.6186,-319.2623C277.8315,-319.406 275.0444,-319.4845 272.2573,-319.4979"/>
<polygon fill="#000000" stroke="#000000" points="272.2453,-315.9968 262.1661,-319.2619 272.0815,-322.9949 272.2453,-315.9968"/>
</g>
<!-- 8&#45;1 -->
<g id="node4" class="node">
<title>8-1</title>
<polygon fill="#ffc300" stroke="#000000" points="539.9745,-324 419.8187,-324 419.8187,-288 539.9745,-288 539.9745,-324"/>
<text text-anchor="middle" x="479.8966" y="-301.8" font-family="Times,serif" font-size="14.00" fill="#000000">[(8,-1) INFO: Col]</text>
</g>
<!-- 5&#45;1&#45;&gt;8&#45;1 -->
<g id="edge3" class="edge">
<title>5-1-&gt;8-1</title>
<path fill="none" stroke="#000000" d="M401.1661,-292.7381C403.9532,-292.5943 406.7403,-292.5157 409.5274,-292.5021"/>
<polygon fill="#000000" stroke="#000000" points="409.5396,-296.0033 419.6186,-292.7377 409.703,-289.0052 409.5396,-296.0033"/>
</g>
<!-- 54 -->
<g id="node11" class="node">
<title>54</title>
<polygon fill="#aed6f1" stroke="#000000" points="394.8966,-252 286.8966,-252 286.8966,-216 394.8966,-216 394.8966,-252"/>
<text text-anchor="middle" x="340.8966" y="-229.8" font-family="Times,serif" font-size="14.00" fill="#000000">[(5,4) INFO: e]</text>
</g>
<!-- 5&#45;1&#45;&gt;54 -->
<g id="edge20" class="edge">
<title>5-1-&gt;54</title>
<path fill="none" stroke="#000000" d="M334.9442,-287.8314C334.1938,-280.131 333.9729,-270.9743 334.2815,-262.4166"/>
<polygon fill="#000000" stroke="#000000" points="337.7758,-262.6161 334.9206,-252.4133 330.7901,-262.1697 337.7758,-262.6161"/>
</g>
<!-- 8&#45;1&#45;&gt;5&#45;1 -->
<g id="edge4" class="edge">
<title>8-1-&gt;5-1</title>
<path fill="none" stroke="#000000" d="M419.6186,-319.2623C416.8315,-319.406 414.0444,-319.4845 411.2573,-319.4979"/>
<polygon fill="#000000" stroke="#000000" points="411.2453,-315.9968 401.1661,-319.2619 411.0815,-322.9949 411.2453,-315.9968"/>
</g>
<!-- 9&#45;1 -->
<g id="node5" class="node">
<title>9-1</title>
<polygon fill="#ffc300" stroke="#000000" points="678.9745,-324 558.8187,-324 558.8187,-288 678.9745,-288 678.9745,-324"/>
<text text-anchor="middle" x="618.8966" y="-301.8" font-family="Times,serif" font-size="14.00" fill="#000000">[(9,-1) INFO: Col]</text>
</g>
<!-- 8&#45;1&#45;&gt;9&#45;1 -->
<g id="edge5" class="edge">
<title>8-1-&gt;9-1</title>
<path fill="none" stroke="#000000" d="M540.1661,-292.7381C542.9532,-292.5943 545.7403,-292.5157 548.5274,-292.5021"/>
<polygon fill="#000000" stroke="#000000" points="548.5396,-296.0033 558.6186,-292.7377 548.703,-289.0052 548.5396,-296.0033"/>
</g>
<!-- 89 -->
<g id="node13" class="node">
<title>89</title>
<polygon fill="#aed6f1" stroke="#000000" points="533.8966,-108 425.8966,-108 425.8966,-72 533.8966,-72 533.8966,-108"/>
<text text-anchor="middle" x="479.8966" y="-85.8" font-family="Times,serif" font-size="14.00" fill="#000000">[(8,9) INFO: c]</text>
</g>
<!-- 8&#45;1&#45;&gt;89 -->
<g id="edge28" class="edge">
<title>8-1-&gt;89</title>
<path fill="none" stroke="#000000" d="M475.9507,-287.9555C472.4922,-250.3144 472.2329,-163.1867 475.1727,-118.1246"/>
<polygon fill="#000000" stroke="#000000" points="478.663,-118.3844 475.9415,-108.1451 471.6837,-117.8467 478.663,-118.3844"/>
</g>
<!-- 9&#45;1&#45;&gt;8&#45;1 -->
<g id="edge6" class="edge">
<title>9-1-&gt;8-1</title>
<path fill="none" stroke="#000000" d="M558.6186,-319.2623C555.8315,-319.406 553.0444,-319.4845 550.2573,-319.4979"/>
<polygon fill="#000000" stroke="#000000" points="550.2453,-315.9968 540.1661,-319.2619 550.0815,-322.9949 550.2453,-315.9968"/>
</g>
<!-- 95 -->
<g id="node15" class="node">
<title>95</title>
<polygon fill="#aed6f1" stroke="#000000" points="672.8966,-180 564.8966,-180 564.8966,-144 672.8966,-144 672.8966,-180"/>
<text text-anchor="middle" x="618.8966" y="-157.8" font-family="Times,serif" font-size="14.00" fill="#000000">[(9,5) INFO: a]</text>
</g>
<!-- 9&#45;1&#45;&gt;95 -->
<g id="edge36" class="edge">
<title>9-1-&gt;95</title>
<path fill="none" stroke="#000000" d="M614.2234,-287.7623C611.7636,-263.201 611.4889,-219.2474 613.3992,-190.3541"/>
<polygon fill="#000000" stroke="#000000" points="616.9118,-190.3416 614.2383,-180.0896 609.9351,-189.7712 616.9118,-190.3416"/>
</g>
<!-- &#45;15 -->
<g id="node7" class="node">
<title>-15</title>
<polygon fill="#daf7a6" stroke="#000000" points="130.19,-180 3.6032,-180 3.6032,-144 130.19,-144 130.19,-180"/>
<text text-anchor="middle" x="66.8966" y="-157.8" font-family="Times,serif" font-size="14.00" fill="#000000">[(-1,5) INFO: Row]</text>
</g>
<!-- &#45;14&#45;&gt;&#45;15 -->
<g id="edge8" class="edge">
<title>-14-&gt;-15</title>
<path fill="none" stroke="#000000" d="M60.9442,-215.8314C60.1938,-208.131 59.9729,-198.9743 60.2815,-190.4166"/>
<polygon fill="#000000" stroke="#000000" points="63.7758,-190.6161 60.9206,-180.4133 56.7901,-190.1697 63.7758,-190.6161"/>
</g>
<!-- &#45;14&#45;&gt;04 -->
<g id="edge18" class="edge">
<title>-14-&gt;04</title>
<path fill="none" stroke="#000000" d="M130.4415,-247.4537C132.8751,-247.5107 135.3087,-247.5151 137.7423,-247.4668"/>
<polygon fill="#000000" stroke="#000000" points="137.9322,-250.9618 147.747,-246.9719 137.5863,-243.9704 137.9322,-250.9618"/>
</g>
<!-- &#45;15&#45;&gt;&#45;14 -->
<g id="edge7" class="edge">
<title>-15-&gt;-14</title>
<path fill="none" stroke="#000000" d="M72.8726,-180.4133C73.6037,-188.0593 73.8169,-197.1084 73.5121,-205.5726"/>
<polygon fill="#000000" stroke="#000000" points="70.0014,-205.6264 72.849,-215.8314 76.9868,-206.078 70.0014,-205.6264"/>
</g>
<!-- &#45;19 -->
<g id="node8" class="node">
<title>-19</title>
<polygon fill="#daf7a6" stroke="#000000" points="130.19,-108 3.6032,-108 3.6032,-72 130.19,-72 130.19,-108"/>
<text text-anchor="middle" x="66.8966" y="-85.8" font-family="Times,serif" font-size="14.00" fill="#000000">[(-1,9) INFO: Row]</text>
</g>
<!-- &#45;15&#45;&gt;&#45;19 -->
<g id="edge10" class="edge">
<title>-15-&gt;-19</title>
<path fill="none" stroke="#000000" d="M60.9442,-143.8314C60.1938,-136.131 59.9729,-126.9743 60.2815,-118.4166"/>
<polygon fill="#000000" stroke="#000000" points="63.7758,-118.6161 60.9206,-108.4133 56.7901,-118.1697 63.7758,-118.6161"/>
</g>
<!-- &#45;15&#45;&gt;95 -->
<g id="edge38" class="edge">
<title>-15-&gt;95</title>
<path fill="none" stroke="#000000" d="M130.2364,-167.4853C271.5966,-178.1404 412.9568,-178.1715 554.317,-167.5785"/>
<polygon fill="#000000" stroke="#000000" points="554.7921,-171.0524 564.495,-166.7974 554.2565,-164.0729 554.7921,-171.0524"/>
</g>
<!-- &#45;19&#45;&gt;&#45;15 -->
<g id="edge9" class="edge">
<title>-19-&gt;-15</title>
<path fill="none" stroke="#000000" d="M72.8726,-108.4133C73.6037,-116.0593 73.8169,-125.1084 73.5121,-133.5726"/>
<polygon fill="#000000" stroke="#000000" points="70.0014,-133.6264 72.849,-143.8314 76.9868,-134.078 70.0014,-133.6264"/>
</g>
<!-- &#45;110 -->
<g id="node9" class="node">
<title>-110</title>
<polygon fill="#daf7a6" stroke="#000000" points="133.69,-36 .1032,-36 .1032,0 133.69,0 133.69,-36"/>
<text text-anchor="middle" x="66.8966" y="-13.8" font-family="Times,serif" font-size="14.00" fill="#000000">[(-1,10) INFO: Row]</text>
</g>
<!-- &#45;19&#45;&gt;&#45;110 -->
<g id="edge12" class="edge">
<title>-19-&gt;-110</title>
<path fill="none" stroke="#000000" d="M60.9442,-71.8314C60.1938,-64.131 59.9729,-54.9743 60.2815,-46.4166"/>
<polygon fill="#000000" stroke="#000000" points="63.7758,-46.6161 60.9206,-36.4133 56.7901,-46.1697 63.7758,-46.6161"/>
</g>
<!-- 59 -->
<g id="node12" class="node">
<title>59</title>
<polygon fill="#aed6f1" stroke="#000000" points="394.8966,-108 286.8966,-108 286.8966,-72 394.8966,-72 394.8966,-108"/>
<text text-anchor="middle" x="340.8966" y="-85.8" font-family="Times,serif" font-size="14.00" fill="#000000">[(5,9) INFO: f]</text>
</g>
<!-- &#45;19&#45;&gt;59 -->
<g id="edge26" class="edge">
<title>-19-&gt;59</title>
<path fill="none" stroke="#000000" d="M130.3126,-99.6054C179.0524,-104.7647 227.7921,-104.798 276.5319,-99.7052"/>
<polygon fill="#000000" stroke="#000000" points="277.0559,-103.1685 286.6054,-98.5796 276.2786,-96.2118 277.0559,-103.1685"/>
</g>
<!-- &#45;110&#45;&gt;&#45;19 -->
<g id="edge11" class="edge">
<title>-110-&gt;-19</title>
<path fill="none" stroke="#000000" d="M72.8726,-36.4133C73.6037,-44.0593 73.8169,-53.1084 73.5121,-61.5726"/>
<polygon fill="#000000" stroke="#000000" points="70.0014,-61.6264 72.849,-71.8314 76.9868,-62.078 70.0014,-61.6264"/>
</g>
<!-- 810 -->
<g id="node14" class="node">
<title>810</title>
<polygon fill="#aed6f1" stroke="#000000" points="534.5864,-36 425.2068,-36 425.2068,0 534.5864,0 534.5864,-36"/>
<text text-anchor="middle" x="479.8966" y="-13.8" font-family="Times,serif" font-size="14.00" fill="#000000">[(8,10) INFO: d]</text>
</g>
<!-- &#45;110&#45;&gt;810 -->
<g id="edge34" class="edge">
<title>-110-&gt;810</title>
<path fill="none" stroke="#000000" d="M133.8478,-25.3348C227.535,-33.6129 321.2222,-33.5547 414.9095,-25.1601"/>
<polygon fill="#000000" stroke="#000000" points="415.517,-28.6188 425.1506,-24.2092 414.8698,-21.6488 415.517,-28.6188"/>
</g>
<!-- 04&#45;&gt;0&#45;1 -->
<g id="edge15" class="edge">
<title>04-&gt;0-1</title>
<path fill="none" stroke="#000000" d="M207.8726,-252.4133C208.6037,-260.0593 208.8169,-269.1084 208.5121,-277.5726"/>
<polygon fill="#000000" stroke="#000000" points="205.0014,-277.6264 207.849,-287.8314 211.9868,-278.078 205.0014,-277.6264"/>
</g>
<!-- 04&#45;&gt;&#45;14 -->
<g id="edge17" class="edge">
<title>04-&gt;-14</title>
<path fill="none" stroke="#000000" d="M147.747,-221.0281C145.3135,-220.8356 142.8799,-220.6957 140.4463,-220.6084"/>
<polygon fill="#000000" stroke="#000000" points="140.4631,-217.1086 130.4415,-220.5463 140.4196,-224.1084 140.4631,-217.1086"/>
</g>
<!-- 04&#45;&gt;54 -->
<g id="edge22" class="edge">
<title>04-&gt;54</title>
<path fill="none" stroke="#000000" d="M255.922,-246.8307C262.8355,-247.4287 269.749,-247.626 276.6626,-247.4225"/>
<polygon fill="#000000" stroke="#000000" points="277.0101,-250.9084 286.7917,-246.8376 276.6065,-243.92 277.0101,-250.9084"/>
</g>
<!-- 54&#45;&gt;5&#45;1 -->
<g id="edge19" class="edge">
<title>54-&gt;5-1</title>
<path fill="none" stroke="#000000" d="M346.8726,-252.4133C347.6037,-260.0593 347.8169,-269.1084 347.5121,-277.5726"/>
<polygon fill="#000000" stroke="#000000" points="344.0014,-277.6264 346.849,-287.8314 350.9868,-278.078 344.0014,-277.6264"/>
</g>
<!-- 54&#45;&gt;04 -->
<g id="edge21" class="edge">
<title>54-&gt;04</title>
<path fill="none" stroke="#000000" d="M286.7917,-221.1624C279.8782,-220.5675 272.9646,-220.3733 266.0511,-220.5799"/>
<polygon fill="#000000" stroke="#000000" points="265.7018,-217.0942 255.922,-221.1693 266.1085,-224.0824 265.7018,-217.0942"/>
</g>
<!-- 54&#45;&gt;59 -->
<g id="edge24" class="edge">
<title>54-&gt;59</title>
<path fill="none" stroke="#000000" d="M336.2234,-215.7623C333.7636,-191.201 333.4889,-147.2474 335.3992,-118.3541"/>
<polygon fill="#000000" stroke="#000000" points="338.9118,-118.3416 336.2383,-108.0896 331.9351,-117.7712 338.9118,-118.3416"/>
</g>
<!-- 59&#45;&gt;&#45;19 -->
<g id="edge25" class="edge">
<title>59-&gt;-19</title>
<path fill="none" stroke="#000000" d="M286.6054,-81.4204C237.8657,-75.6213 189.1259,-74.9483 140.3862,-79.4012"/>
<polygon fill="#000000" stroke="#000000" points="139.9209,-75.9301 130.3126,-80.3946 140.6078,-82.8963 139.9209,-75.9301"/>
</g>
<!-- 59&#45;&gt;54 -->
<g id="edge23" class="edge">
<title>59-&gt;54</title>
<path fill="none" stroke="#000000" d="M345.5549,-108.0896C348.0235,-132.5727 348.307,-176.5174 346.4055,-205.4713"/>
<polygon fill="#000000" stroke="#000000" points="342.8908,-205.5118 345.5698,-215.7623 349.8678,-206.0785 342.8908,-205.5118"/>
</g>
<!-- 59&#45;&gt;89 -->
<g id="edge30" class="edge">
<title>59-&gt;89</title>
<path fill="none" stroke="#000000" d="M394.922,-102.8307C401.8355,-103.4287 408.749,-103.626 415.6626,-103.4225"/>
<polygon fill="#000000" stroke="#000000" points="416.0101,-106.9084 425.7917,-102.8376 415.6065,-99.92 416.0101,-106.9084"/>
</g>
<!-- 89&#45;&gt;8&#45;1 -->
<g id="edge27" class="edge">
<title>89-&gt;8-1</title>
<path fill="none" stroke="#000000" d="M483.8517,-108.1451C487.2972,-145.7945 487.557,-232.6409 484.6312,-277.7103"/>
<polygon fill="#000000" stroke="#000000" points="481.1205,-277.7163 483.8425,-287.9555 488.0998,-278.2537 481.1205,-277.7163"/>
</g>
<!-- 89&#45;&gt;59 -->
<g id="edge29" class="edge">
<title>89-&gt;59</title>
<path fill="none" stroke="#000000" d="M425.7917,-77.1624C418.8782,-76.5675 411.9646,-76.3733 405.0511,-76.5799"/>
<polygon fill="#000000" stroke="#000000" points="404.7018,-73.0942 394.922,-77.1693 405.1085,-80.0824 404.7018,-73.0942"/>
</g>
<!-- 89&#45;&gt;810 -->
<g id="edge32" class="edge">
<title>89-&gt;810</title>
<path fill="none" stroke="#000000" d="M473.9442,-71.8314C473.1938,-64.131 472.9729,-54.9743 473.2815,-46.4166"/>
<polygon fill="#000000" stroke="#000000" points="476.7758,-46.6161 473.9206,-36.4133 469.7901,-46.1697 476.7758,-46.6161"/>
</g>
<!-- 810&#45;&gt;&#45;110 -->
<g id="edge33" class="edge">
<title>810-&gt;-110</title>
<path fill="none" stroke="#000000" d="M425.1506,-11.7908C331.4634,-2.7887 237.7761,-2.1229 144.0889,-9.7935"/>
<polygon fill="#000000" stroke="#000000" points="143.5149,-6.3296 133.8478,-10.6652 144.1086,-13.3044 143.5149,-6.3296"/>
</g>
<!-- 810&#45;&gt;89 -->
<g id="edge31" class="edge">
<title>810-&gt;89</title>
<path fill="none" stroke="#000000" d="M485.8726,-36.4133C486.6037,-44.0593 486.8169,-53.1084 486.5121,-61.5726"/>
<polygon fill="#000000" stroke="#000000" points="483.0014,-61.6264 485.849,-71.8314 489.9868,-62.078 483.0014,-61.6264"/>
</g>
<!-- 95&#45;&gt;9&#45;1 -->
<g id="edge35" class="edge">
<title>95-&gt;9-1</title>
<path fill="none" stroke="#000000" d="M623.5549,-180.0896C626.0235,-204.5727 626.307,-248.5174 624.4055,-277.4713"/>
<polygon fill="#000000" stroke="#000000" points="620.8908,-277.5118 623.5698,-287.7623 627.8678,-278.0785 620.8908,-277.5118"/>
</g>
<!-- 95&#45;&gt;&#45;15 -->
<g id="edge37" class="edge">
<title>95-&gt;-15</title>
<path fill="none" stroke="#000000" d="M564.495,-157.2026C423.1348,-146.0996 281.7746,-145.6207 140.4144,-155.7659"/>
<polygon fill="#000000" stroke="#000000" points="139.9526,-152.2903 130.2364,-156.5147 140.4663,-159.2714 139.9526,-152.2903"/>
</g>
</g>
</svg>